<svg width="773" height="773" viewBox="0 0 773 773" fill="none" xmlns="http://www.w3.org/2000/svg">
<circle cx="386.861" cy="386.16" r="384.082" fill="#F6F6F6" stroke="#EEEEEE" stroke-width="4.11397"/>
<path d="M518.032 370.037C524.866 291.926 593.728 234.144 671.839 240.978V240.978V240.978C665.005 319.089 596.144 376.871 518.032 370.037V370.037V370.037Z" fill="#EEEEEE"/>
<path d="M383.112 602.836C445.722 528.323 556.881 518.674 631.394 581.284V581.284V581.284C568.784 655.796 457.625 665.446 383.112 602.836V602.836V602.836Z" fill="#EEEEEE"/>
<path d="M341.05 114.033C403.036 203.645 380.64 326.539 291.029 388.525V388.525V388.525C229.043 298.913 251.438 176.019 341.05 114.033V114.033V114.033Z" fill="#EEEEEE"/>
<path d="M554.739 46.0535C540.454 139.692 530.794 192.932 493.035 286.804C458.684 367.776 440.203 412.902 379.802 484.918C379.789 484.93 379.776 484.943 379.763 484.956C379.659 485.06 379.471 485.258 379.272 485.532C379.133 485.724 378.672 486.373 378.459 487.347C378.188 488.59 378.339 490.607 380.056 492.058C381.304 493.113 382.649 493.181 382.973 493.195L385.339 493.296L386.54 491.864C386.602 491.825 386.671 491.781 386.746 491.734C387.444 491.298 388.558 490.632 390.062 489.754C393.056 488.006 397.456 485.499 402.84 482.478C413.603 476.441 428.24 468.387 443.317 460.318C458.403 452.245 473.889 444.18 486.362 438.109C492.606 435.07 498.039 432.558 502.264 430.8C504.38 429.919 506.133 429.253 507.499 428.807C508.181 428.585 508.724 428.432 509.137 428.335C509.577 428.231 509.742 428.223 509.711 428.224C516.167 427.952 557.852 424.958 609.963 417.502C659.85 410.364 719.646 399.085 767.317 382.055L768.017 396.052C719.069 413.972 691.03 422.278 642.337 430.687C548.073 443.089 499.975 451.385 461.438 475.758C425.996 493.234 407.107 503.99 376.794 525.361L376.427 525.619L376.114 525.941C338.828 564.335 309.516 593.926 287.495 626.313C266.313 657.466 251.908 691.133 243.171 737.712L180.014 704.853C180.237 704.541 180.471 704.215 180.711 703.873C183.244 700.265 186.669 695.039 190.283 688.507C197.495 675.472 205.548 657.079 208.667 635.873C209.51 630.14 209.287 621.274 208.193 610.235C207.088 599.078 205.053 585.341 202.094 569.679C196.174 538.352 186.525 499.154 173.1 457.227C146.589 374.44 105.169 280.437 48.2217 215.474L50.6055 209.274C114.048 269.653 157.781 319.405 186.691 375C216.34 432.014 230.589 495.547 233.988 583.622L234.359 593.241L241.831 587.173C288.481 549.285 314.569 515.314 360.439 458.939L360.511 458.851L360.578 458.76C417.165 382.135 440.13 338.824 484.79 262.21L484.837 262.129L484.881 262.047C529.304 178.574 538.694 128.361 546.199 42.0681L554.739 46.0535Z" fill="#EEEEEE" stroke="#EEEEEE" stroke-width="9.62529"/>
</svg>
