<svg width="633" height="131" viewBox="0 0 633 131" fill="none" xmlns="http://www.w3.org/2000/svg">
<circle cx="65.5" cy="65.5" r="65.5" fill="#1F4227"/>
<path d="M88.6789 62.3248C89.853 48.9057 101.683 38.9791 115.102 40.1531C113.928 53.5722 102.098 63.4989 88.6789 62.3248Z" fill="white"/>
<path d="M65.4991 102.318C76.2551 89.5173 95.3518 87.8596 108.153 98.6156C97.3967 111.417 78.3 113.074 65.4991 102.318Z" fill="white"/>
<path d="M58.2732 18.3433C68.9221 33.7382 65.0747 54.8509 49.6798 65.4997C39.0309 50.1048 42.8784 28.9922 58.2732 18.3433Z" fill="white"/>
<path d="M34.7131 107.873C35.7466 100.845 26.6996 58.0297 7.01562 35.9423L8.04911 33.2552C30.8528 54.8045 39.5334 68.5691 40.7073 98.985C48.6419 92.5409 53.0677 86.7792 60.9637 77.0751C70.6525 63.955 74.5735 56.5584 82.2535 43.3834C90.015 28.7994 91.4909 20.2212 92.7951 4.73096L95.8956 6.17784C93.385 22.6757 91.7541 31.921 85.1473 48.3441C79.2299 62.2924 76.0155 70.1453 65.511 82.6559C65.2393 82.6444 85.0601 71.5851 87.2143 71.4943C89.3684 71.4034 115.748 69.4492 132.274 63.2264L132.481 67.3603C123.677 70.5982 118.783 72.0724 110.158 73.5612C93.8713 75.7037 85.805 77.1184 79.3597 81.209C73.2762 84.2078 70.0671 86.0344 64.8909 89.6836C52.0399 102.916 44.8647 110.346 41.9475 127.303L28.9256 120.482C28.9256 120.482 33.6796 114.901 34.7131 107.873Z" fill="white"/>
<path d="M205.115 33.3L213.885 59.8241H214.231L222.985 33.3H229.698L217.818 66.998H210.282L198.419 33.3H205.115ZM245.647 66.998H239.132L250.995 33.3H258.531L270.411 66.998H263.895L254.895 40.2107H254.631L245.647 66.998ZM245.861 53.7854H263.632V58.6887H245.861V53.7854ZM307.212 33.3H313.316V55.3156C313.316 57.7289 312.746 59.8515 311.605 61.6834C310.475 63.5153 308.885 64.9468 306.834 65.9779C304.782 66.998 302.385 67.5081 299.643 67.5081C296.89 67.5081 294.487 66.998 292.436 65.9779C290.385 64.9468 288.794 63.5153 287.665 61.6834C286.535 59.8515 285.97 57.7289 285.97 55.3156V33.3H292.074V54.8055C292.074 56.2096 292.381 57.4601 292.996 58.5571C293.621 59.654 294.498 60.5151 295.628 61.1404C296.758 61.7547 298.096 62.0618 299.643 62.0618C301.19 62.0618 302.528 61.7547 303.658 61.1404C304.799 60.5151 305.676 59.654 306.291 58.5571C306.905 57.4601 307.212 56.2096 307.212 54.8055V33.3ZM331.072 66.998V33.3H337.176V61.8808H352.018V66.998H331.072ZM362.657 38.4172V33.3H389.543V38.4172H379.128V66.998H373.073V38.4172H362.657ZM438.267 67.4917C435.963 67.4917 433.983 67.0748 432.327 66.2412C430.67 65.4075 429.392 64.2831 428.493 62.8681C427.604 61.442 427.16 59.835 427.16 58.047C427.16 56.6978 427.434 55.5021 427.983 54.46C428.542 53.4179 429.31 52.4526 430.286 51.5641C431.274 50.6756 432.415 49.7925 433.709 48.915L439.682 44.8508C440.559 44.2804 441.223 43.6771 441.673 43.0409C442.133 42.4046 442.364 41.6587 442.364 40.8031C442.364 40.0791 442.057 39.3935 441.442 38.7463C440.839 38.0991 440.005 37.7755 438.941 37.7755C438.228 37.7755 437.598 37.9456 437.049 38.2856C436.512 38.6147 436.089 39.048 435.782 39.5855C435.486 40.123 435.338 40.6934 435.338 41.2967C435.338 42.0317 435.541 42.7776 435.947 43.5345C436.364 44.2914 436.901 45.0757 437.559 45.8874C438.228 46.6992 438.941 47.5602 439.698 48.4707L455.511 66.998H449.061L435.93 51.959C434.954 50.8182 434.011 49.6938 433.1 48.5859C432.201 47.478 431.46 46.3262 430.879 45.1305C430.308 43.9239 430.023 42.6185 430.023 41.2144C430.023 39.6239 430.391 38.2033 431.126 36.9528C431.861 35.6913 432.886 34.6986 434.203 33.9746C435.53 33.2507 437.082 32.8887 438.859 32.8887C440.636 32.8887 442.161 33.2397 443.433 33.9417C444.706 34.6438 445.688 35.5762 446.379 36.7389C447.07 37.9017 447.415 39.1687 447.415 40.5398C447.415 42.1304 447.02 43.5564 446.231 44.8179C445.441 46.0684 444.344 47.2037 442.94 48.2239L436.128 53.2095C435.009 54.0212 434.208 54.8439 433.725 55.6776C433.243 56.5003 433.001 57.2024 433.001 57.7837C433.001 58.6723 433.226 59.4785 433.676 60.2025C434.126 60.9265 434.757 61.5079 435.568 61.9466C436.391 62.3744 437.351 62.5883 438.448 62.5883C439.654 62.5883 440.845 62.3196 442.018 61.7821C443.192 61.2336 444.262 60.4548 445.227 59.4456C446.192 58.4364 446.96 57.2298 447.53 55.8257C448.101 54.4106 448.386 52.842 448.386 51.1198H453.503C453.503 53.2479 453.267 55.1017 452.796 56.6813C452.324 58.2499 451.715 59.5772 450.969 60.6632C450.223 61.7382 449.434 62.5993 448.6 63.2465C448.337 63.433 448.084 63.6195 447.843 63.8059C447.602 63.9924 447.349 64.1789 447.086 64.3654C445.901 65.4404 444.514 66.2302 442.923 66.7348C441.344 67.2394 439.791 67.4917 438.267 67.4917ZM497.426 33.3L506.196 59.8241H506.542L515.296 33.3H522.009L510.129 66.998H502.593L490.73 33.3H497.426ZM543.672 33.3V66.998H537.568V33.3H543.672ZM589.095 33.3V66.998H583.665L567.787 44.0446H567.507V66.998H561.403V33.3H566.866L582.727 56.27H583.024V33.3H589.095ZM606.867 66.998V33.3H628.784V38.4172H612.972V47.5657H627.649V52.683H612.972V61.8808H628.916V66.998H606.867Z" fill="#1F4227"/>
<path d="M212.129 105.857C212.129 106.821 212.194 107.914 212.323 109.138C211.119 109.082 209.089 109.054 206.235 109.054C202.806 109.054 200.212 109.082 198.451 109.138V108.582C199.118 108.545 199.6 108.47 199.896 108.359C200.212 108.248 200.425 108.035 200.536 107.72C200.647 107.405 200.703 106.895 200.703 106.191V95.1817C200.703 94.4774 200.647 93.9677 200.536 93.6526C200.425 93.3375 200.212 93.1244 199.896 93.0132C199.6 92.902 199.118 92.8278 198.451 92.7908V92.2348C200.212 92.2904 202.806 92.3182 206.235 92.3182C208.83 92.3182 210.674 92.2904 211.767 92.2348C211.638 93.3468 211.573 94.3476 211.573 95.2373C211.573 95.9601 211.601 96.5346 211.656 96.9609H211.017C210.887 95.4411 210.563 94.3847 210.044 93.7916C209.543 93.18 208.719 92.8742 207.57 92.8742H205.54C204.873 92.8742 204.382 92.9298 204.067 93.041C203.77 93.1337 203.566 93.3375 203.455 93.6526C203.344 93.9677 203.288 94.4774 203.288 95.1817V100.353H205.596C206.189 100.353 206.643 100.204 206.958 99.9078C207.273 99.5927 207.486 99.2591 207.597 98.907C207.709 98.5363 207.81 98.0729 207.903 97.5169H208.543C208.487 98.1471 208.459 98.8328 208.459 99.5742V100.631C208.459 101.353 208.515 102.391 208.626 103.744H207.987C207.875 102.855 207.662 102.16 207.347 101.659C207.032 101.159 206.448 100.909 205.596 100.909H203.288V106.191C203.288 106.895 203.344 107.405 203.455 107.72C203.566 108.035 203.77 108.248 204.067 108.359C204.382 108.452 204.873 108.498 205.54 108.498H207.57C208.496 108.498 209.228 108.35 209.766 108.053C210.303 107.757 210.711 107.284 210.989 106.636C211.267 105.968 211.462 105.042 211.573 103.856H212.212C212.157 104.356 212.129 105.023 212.129 105.857ZM235.947 91.8456C236.762 91.8456 237.402 91.9382 237.865 92.1236C238.347 92.2904 238.838 92.5406 239.338 92.8742C239.746 93.1337 240.061 93.2634 240.284 93.2634C240.45 93.2634 240.58 93.1707 240.673 92.9854C240.765 92.7815 240.84 92.4664 240.895 92.0402H241.535C241.442 93.0039 241.396 94.709 241.396 97.1555H240.756C240.645 95.8211 240.209 94.6905 239.45 93.7638C238.708 92.8371 237.624 92.3738 236.197 92.3738C235.215 92.3738 234.399 92.6332 233.75 93.1522C233.12 93.6711 232.805 94.3291 232.805 95.1261C232.805 95.7006 232.944 96.201 233.222 96.6273C233.519 97.0536 233.889 97.4243 234.334 97.7393C234.798 98.0359 235.446 98.4066 236.28 98.8514L237.198 99.3518C238.347 99.9634 239.264 100.51 239.95 100.992C240.654 101.474 241.22 102.03 241.646 102.66C242.072 103.272 242.285 103.985 242.285 104.801C242.285 106.302 241.738 107.47 240.645 108.304C239.57 109.119 238.217 109.527 236.586 109.527C235.696 109.527 234.964 109.434 234.39 109.249C233.834 109.064 233.296 108.813 232.777 108.498C232.37 108.239 232.054 108.109 231.832 108.109C231.665 108.109 231.536 108.211 231.443 108.415C231.35 108.6 231.276 108.906 231.22 109.332H230.581C230.655 108.424 230.692 106.385 230.692 103.216H231.332C231.461 104.94 231.925 106.33 232.722 107.386C233.519 108.443 234.742 108.971 236.391 108.971C237.318 108.971 238.115 108.711 238.782 108.192C239.468 107.655 239.811 106.867 239.811 105.829C239.811 105.218 239.635 104.68 239.283 104.217C238.931 103.735 238.458 103.309 237.865 102.938C237.272 102.567 236.447 102.104 235.391 101.548C233.871 100.77 232.712 99.9912 231.915 99.2128C231.119 98.4344 230.72 97.4243 230.72 96.1825C230.72 94.811 231.22 93.7453 232.221 92.9854C233.241 92.2255 234.482 91.8456 235.947 91.8456ZM275.317 92.2348C275.187 93.458 275.122 94.5515 275.122 95.5153C275.122 96.479 275.15 97.2389 275.206 97.7949H274.566C274.455 96.4976 274.279 95.506 274.038 94.8202C273.797 94.1345 273.408 93.6433 272.871 93.3468C272.333 93.0317 271.564 92.8742 270.563 92.8742H268.784V105.913C268.784 106.691 268.858 107.257 269.006 107.609C269.154 107.961 269.414 108.202 269.785 108.331C270.155 108.461 270.758 108.545 271.592 108.582V109.138C270.628 109.082 269.266 109.054 267.505 109.054C265.652 109.054 264.28 109.082 263.39 109.138V108.582C264.224 108.545 264.827 108.461 265.197 108.331C265.568 108.202 265.828 107.961 265.976 107.609C266.124 107.257 266.198 106.691 266.198 105.913V92.8742H264.419C263.418 92.8742 262.649 93.0317 262.112 93.3468C261.574 93.6433 261.185 94.1345 260.944 94.8202C260.703 95.506 260.527 96.4976 260.416 97.7949H259.776C259.832 97.2019 259.86 96.442 259.86 95.5153C259.86 94.5515 259.795 93.458 259.665 92.2348C261.203 92.2904 263.817 92.3182 267.505 92.3182C271.175 92.3182 273.779 92.2904 275.317 92.2348ZM293.498 105.968C293.98 105.968 294.397 106.144 294.749 106.497C295.101 106.849 295.277 107.266 295.277 107.748C295.277 108.23 295.101 108.647 294.749 108.999C294.397 109.351 293.98 109.527 293.498 109.527C293.016 109.527 292.599 109.351 292.247 108.999C291.895 108.647 291.718 108.23 291.718 107.748C291.718 107.266 291.895 106.849 292.247 106.497C292.599 106.144 293.016 105.968 293.498 105.968ZM340.731 94.431C342.028 94.431 343.047 94.7368 343.789 95.3485C344.53 95.9601 344.901 96.8219 344.901 97.9339C344.901 98.6938 344.697 99.4352 344.289 100.158C343.9 100.862 343.418 101.511 342.844 102.104C342.288 102.697 341.546 103.411 340.62 104.245C339.86 104.949 339.294 105.487 338.924 105.857C338.553 106.209 338.219 106.589 337.923 106.997H343.566C344.067 106.997 344.438 106.96 344.678 106.886C344.938 106.793 345.114 106.654 345.207 106.469C345.299 106.265 345.373 105.968 345.429 105.579H345.902C345.902 107.284 345.939 108.517 346.013 109.277C345.605 109.184 344.224 109.138 341.871 109.138H335.365V108.665C335.68 108.331 336.218 107.803 336.978 107.08C338.034 106.098 338.914 105.218 339.619 104.439C340.323 103.642 340.925 102.743 341.426 101.743C341.945 100.742 342.204 99.6761 342.204 98.5456C342.204 96.5439 341.277 95.5431 339.424 95.5431C337.904 95.5431 336.663 96.4142 335.699 98.1563L335.254 97.9061C335.736 96.9053 336.422 96.0806 337.311 95.4319C338.201 94.7646 339.341 94.431 340.731 94.431ZM370.742 94.431C372.04 94.431 373.198 94.7368 374.217 95.3485C375.237 95.9415 376.034 96.7941 376.608 97.9061C377.183 99.0182 377.47 100.297 377.47 101.743C377.47 103.225 377.173 104.56 376.58 105.746C375.987 106.914 375.153 107.84 374.078 108.526C373.022 109.193 371.808 109.527 370.436 109.527C369.158 109.527 368.008 109.23 366.989 108.637C365.97 108.026 365.163 107.164 364.57 106.052C363.996 104.94 363.709 103.652 363.709 102.187C363.709 100.723 363.996 99.4074 364.57 98.2398C365.163 97.0536 365.988 96.1269 367.045 95.4597C368.12 94.7739 369.352 94.431 370.742 94.431ZM370.492 94.9314C369.695 94.9314 368.981 95.2187 368.351 95.7933C367.74 96.3493 367.258 97.1741 366.906 98.2676C366.572 99.3425 366.405 100.621 366.405 102.104C366.405 104.458 366.804 106.2 367.601 107.331C368.398 108.461 369.426 109.026 370.687 109.026C371.484 109.026 372.188 108.739 372.799 108.165C373.43 107.59 373.912 106.765 374.245 105.69C374.597 104.597 374.773 103.309 374.773 101.826C374.773 99.4908 374.375 97.7579 373.578 96.6273C372.781 95.4967 371.752 94.9314 370.492 94.9314ZM402.424 94.431C403.722 94.431 404.88 94.7368 405.899 95.3485C406.919 95.9415 407.716 96.7941 408.29 97.9061C408.865 99.0182 409.152 100.297 409.152 101.743C409.152 103.225 408.856 104.56 408.263 105.746C407.669 106.914 406.835 107.84 405.76 108.526C404.704 109.193 403.49 109.527 402.119 109.527C400.84 109.527 399.691 109.23 398.671 108.637C397.652 108.026 396.846 107.164 396.253 106.052C395.678 104.94 395.391 103.652 395.391 102.187C395.391 100.723 395.678 99.4074 396.253 98.2398C396.846 97.0536 397.67 96.1269 398.727 95.4597C399.802 94.7739 401.034 94.431 402.424 94.431ZM402.174 94.9314C401.377 94.9314 400.664 95.2187 400.033 95.7933C399.422 96.3493 398.94 97.1741 398.588 98.2676C398.254 99.3425 398.087 100.621 398.087 102.104C398.087 104.458 398.486 106.2 399.283 107.331C400.08 108.461 401.108 109.026 402.369 109.026C403.166 109.026 403.87 108.739 404.482 108.165C405.112 107.59 405.594 106.765 405.927 105.69C406.279 104.597 406.455 103.309 406.455 101.826C406.455 99.4908 406.057 97.7579 405.26 96.6273C404.463 95.4967 403.434 94.9314 402.174 94.9314ZM432.411 94.431C433.708 94.431 434.727 94.7368 435.469 95.3485C436.21 95.9601 436.581 96.8219 436.581 97.9339C436.581 98.6938 436.377 99.4352 435.969 100.158C435.58 100.862 435.098 101.511 434.523 102.104C433.967 102.697 433.226 103.411 432.299 104.245C431.54 104.949 430.974 105.487 430.604 105.857C430.233 106.209 429.899 106.589 429.603 106.997H435.246C435.747 106.997 436.117 106.96 436.358 106.886C436.618 106.793 436.794 106.654 436.887 106.469C436.979 106.265 437.053 105.968 437.109 105.579H437.582C437.582 107.284 437.619 108.517 437.693 109.277C437.285 109.184 435.904 109.138 433.55 109.138H427.045V108.665C427.36 108.331 427.898 107.803 428.657 107.08C429.714 106.098 430.594 105.218 431.299 104.439C432.003 103.642 432.605 102.743 433.106 101.743C433.625 100.742 433.884 99.6761 433.884 98.5456C433.884 96.5439 432.957 95.5431 431.104 95.5431C429.584 95.5431 428.342 96.4142 427.379 98.1563L426.934 97.9061C427.416 96.9053 428.101 96.0806 428.991 95.4319C429.881 94.7646 431.021 94.431 432.411 94.431Z" fill="#1F4227"/>
</svg>
